<svg width="156" height="151" viewBox="0 0 156 151" fill="none" xmlns="http://www.w3.org/2000/svg">
<path d="M43.1423 5.30023C50.4842 0.869905 54.6003 1.19408 61.9423 5.30023L112.817 140.7C102.858 149.808 97.2751 150.038 87.3168 140.7L74.1986 97.3002C74.1986 97.3002 73.9685 97.3002 51.9685 119.3C29.9685 141.3 -5.18405 163.1 0.642238 140.7C6.46852 118.3 43.1423 5.30023 43.1423 5.30023ZM70.1422 87.7002C65.8756 75.7002 62.2089 64.8336 59.1423 55.1002C56.0756 45.2336 48.2423 15.3001 46.6423 9.70013C44.7756 15.7001 37.009 45.3669 33.9423 55.1002C30.8756 64.8336 20.6347 95.2002 20.6347 109.2C20.6347 109.2 23.1423 138.3 46.6423 114.3C70.1422 90.3002 70.1422 87.7002 70.1422 87.7002Z" fill="white"/>
<path d="M140.135 7.20056C119.135 7.70031 102.135 4.77232 90.1347 11.7004C78.1347 18.6284 86.6347 29.2002 128.635 71.2002C170.635 113.2 138.635 139.701 108.135 139.701C87.6995 144.609 96.1347 139.701 76.1347 79.7006" stroke="white" stroke-width="14"/>
<path d="M139.135 14.2002L139.135 0.200195L151.116 6.32082L139.135 14.2002Z" fill="white"/>
</svg>
